<?xml version="1.0" encoding="iso-8859-1"?>
<!-- Generator: Adobe Illustrator 17.1.0, SVG Export Plug-In . SVG Version: 6.00 Build 0)  -->
<!DOCTYPE svg PUBLIC "-//W3C//DTD SVG 1.1//EN" "http://www.w3.org/Graphics/SVG/1.1/DTD/svg11.dtd">
<svg version="1.1" id="Capa_1" xmlns="http://www.w3.org/2000/svg" xmlns:xlink="http://www.w3.org/1999/xlink" x="0px" y="0px"
	 viewBox="0 0 206.7 206.7" style="enable-background:new 0 0 206.7 206.7;" xml:space="preserve">
<path d="M159.866,191.071V201.7c0,2.762-2.238,5-5,5H51.834c-2.762,0-5-2.238-5-5v-10.629H159.866z M154.866,27.049
	c-2.299,0-4.609,0.162-6.906,0.484C139.538,10.68,122.445,0,103.351,0S67.162,10.68,58.74,27.533
	c-2.297-0.322-4.607-0.484-6.906-0.484c-27.516,0-49.901,22.386-49.901,49.901c0,25.828,19.726,47.136,44.901,49.652v54.469h14.378
	v-51.5c0-2.762,2.238-5,5-5s5,2.238,5,5v51.5H98.35v-51.5c0-2.762,2.238-5,5-5s5,2.238,5,5v51.5h27.139v-51.5c0-2.762,2.238-5,5-5
	s5,2.238,5,5v51.5h14.378v-54.469c25.176-2.517,44.901-23.824,44.901-49.652C204.768,49.435,182.382,27.049,154.866,27.049z"/>
<g>
</g>
<g>
</g>
<g>
</g>
<g>
</g>
<g>
</g>
<g>
</g>
<g>
</g>
<g>
</g>
<g>
</g>
<g>
</g>
<g>
</g>
<g>
</g>
<g>
</g>
<g>
</g>
<g>
</g>
</svg>
