<svg height="511pt" viewBox="-7 1 511 511.99973" width="511pt" xmlns="http://www.w3.org/2000/svg"><path d="m235.460938 42.351562c0 23.386719-18.957032 42.34375-42.34375 42.34375-23.382813 0-42.34375-18.957031-42.34375-42.34375 0-23.382812 18.960937-42.3398432 42.34375-42.3398432 23.386718 0 42.34375 18.9570312 42.34375 42.3398432zm0 0" fill="#ffb69e"/><path d="m235.414062 44.367188c.304688-6.273438-.785156-12.714844-3.453124-18.867188-9.304688-21.453125-34.242188-31.296875-55.695313-21.992188-16.609375 7.207032-26.253906 23.785157-25.445313 40.859376zm0 0" fill="#fa503c"/><path d="m260.214844 44.53125-57.28125-.164062c.050781-11.285157 9.238281-20.394532 20.523437-20.347657l36.84375.15625c5.621094.023438 10.160157 4.601563 10.136719 10.222657-.023438 5.621093-4.601562 10.15625-10.222656 10.132812zm0 0" fill="#e83e29"/><path d="m236.464844 170.566406-67.34375-25.292968c-10.371094-3.894532-15.621094-15.457032-11.726563-25.828126 3.894531-10.371093 15.460938-15.621093 25.828125-11.726562l61.492188 23.09375 67.792968-16.945312c10.746094-2.691407 21.636719 3.84375 24.324219 14.59375 2.6875 10.746093-3.847656 21.636718-14.59375 24.320312l-73.859375 18.464844c-3.8125.953125-7.972656.800781-11.914062-.679688zm0 0" fill="#f0a890"/><path d="m251.179688 394.859375c-12.105469-5.570313-17.40625-19.902344-11.835938-32.007813l19.757812-75.007812-106.046874-.789062c-13.171876-2.03125-22.203126-14.359376-20.167969-27.53125 2.03125-13.171876 14.351562-22.203126 27.53125-20.167969l132.253906 5.667969c15.878906 2.453124 26.269531 19.425781 19.589844 33.9375l-29.074219 104.066406c-5.582031 12.136718-19.929688 17.390625-32.007812 11.832031zm0 0" fill="#414b82"/><path d="m418.175781 317.480469c4.980469-65.445313-55.101562-92.210938-55.101562-92.210938l-19.148438-47.636719h18.710938c9.3125 0 17.222656-7.621093 17.050781-16.933593-.171875-9.03125-7.542969-16.300781-16.613281-16.300781h-40.058594c-3.839844 0-7.636719 1.164062-10.644531 3.542968-5.257813 4.152344-7.425782 10.867188-5.859375 17.117188l57.042969 224.933594 1.535156 6.984374h-106.121094c-18.164062-52.082031-67.703125-89.457031-125.980469-89.457031-68.050781 0-124.199219 50.957031-132.371093 116.796875-1.105469 8.890625 5.847656 16.742188 14.808593 16.742188h350.933594c4.925781 0 9.1875 3.425781 10.246094 8.234375 1.0625 4.8125 5.324219 8.238281 10.25 8.238281h94.664062c9.050781 0 16.410157-7.234375 16.613281-16.234375.003907-.171875.007813-.355469.007813-.507813 0-54.859374-32.878906-102.183593-79.964844-123.308593zm0 0" fill="#fa503c"/><path d="m204.074219 440.914062c0 39.261719-31.828125 71.085938-71.085938 71.085938-39.257812 0-71.082031-31.824219-71.082031-71.085938 0-39.257812 31.824219-71.082031 71.082031-71.082031 39.257813 0 71.085938 31.824219 71.085938 71.082031zm0 0" fill="#373c41"/><path d="m156.46875 440.914062c0 12.96875-10.511719 23.480469-23.480469 23.480469s-23.480469-10.511719-23.480469-23.480469c0-12.964843 10.511719-23.476562 23.480469-23.476562s23.480469 10.511719 23.480469 23.476562zm0 0" fill="#fff"/><path d="m132.601562 281.765625v-153.867187c0-15.207032 12.328126-27.535157 27.535157-27.535157h50.417969c15.207031 0 27.535156 12.328125 27.535156 27.535157v114.753906zm0 0" fill="#55c7a6"/><path d="m446.320312 440.914062c0 39.261719-31.824218 71.085938-71.082031 71.085938-39.261719 0-71.085937-31.824219-71.085937-71.085938 0-39.257812 31.824218-71.082031 71.085937-71.082031 39.257813 0 71.082031 31.824219 71.082031 71.082031zm0 0" fill="#373c41"/><path d="m398.714844 440.914062c0 12.96875-10.511719 23.480469-23.476563 23.480469-12.96875 0-23.480469-10.511719-23.480469-23.480469 0-12.964843 10.511719-23.476562 23.480469-23.476562 12.964844 0 23.476563 10.511719 23.476563 23.476562zm0 0" fill="#fff"/><path d="m317.5 201.464844-75.589844-9.039063c-3.167968-.378906-6.203125-1.507812-8.847656-3.292969l-68.121094-46.015624c-9.179687-6.199219-11.59375-18.667969-5.390625-27.847657 6.199219-9.179687 18.667969-11.59375 27.84375-5.394531l64.097657 43.296875 70.769531 8.464844c11 1.316406 18.847656 11.300781 17.535156 22.296875-1.308594 10.921875-11.214844 18.851562-22.296875 17.53125zm0 0" fill="#ffb69e"/><path d="m220.578125 132.289062-33.179687-22.414062c-9.179688-6.199219-21.648438-3.785156-27.847657 5.394531-6.203125 9.179688-3.785156 21.648438 5.394531 27.847657l36.140626 24.414062zm0 0" fill="#39ae96"/><path d="m240.855469 328.292969h-191.003907c-5.148437 0-9.320312-4.171875-9.320312-9.320313v-41.175781c0-5.148437 4.171875-9.324219 9.320312-9.324219h191.007813c5.148437 0 9.320313 4.175782 9.320313 9.324219v41.175781c0 5.148438-4.171876 9.320313-9.324219 9.320313zm0 0" fill="#ffc305"/><path d="m108.550781 268.472656h-90.765625c-6.847656 0-12.398437-5.550781-12.398437-12.394531v-117.183594c0-6.847656 5.550781-12.398437 12.398437-12.398437h90.765625c6.84375 0 12.394531 5.550781 12.394531 12.398437v117.183594c0 6.84375-5.550781 12.394531-12.394531 12.394531zm0 0" fill="#965028"/></svg>